<svg width="25" height="24" viewBox="0 0 25 24" fill="none" xmlns="http://www.w3.org/2000/svg">
<g id="maki:casino">
<path id="Vector" d="M14.0992 16.0001C14.6029 16.6717 15.3052 17.1678 16.1065 17.4182C16.9079 17.6685 17.7677 17.6603 18.5641 17.3948C19.3606 17.1293 20.0533 16.62 20.5442 15.9389C21.0351 15.2579 21.2992 14.4396 21.2992 13.6001C21.2992 12.6977 20.9888 11.8737 20.4848 11.2049L20.4992 11.2001L12.4992 1.6001L4.49922 11.2001L4.51362 11.2049C3.98788 11.8929 3.70185 12.7342 3.69922 13.6001C3.69922 14.4396 3.96337 15.2579 4.45425 15.9389C4.94513 16.62 5.63786 17.1293 6.43431 17.3948C7.23076 17.6603 8.09055 17.6685 8.89189 17.4182C9.69323 17.1678 10.3955 16.6717 10.8992 16.0001L11.6992 14.9345V18.4001C11.6992 20.8001 7.69922 20.8001 7.69922 20.8001C7.48705 20.8001 7.28356 20.8844 7.13353 21.0344C6.9835 21.1844 6.89922 21.3879 6.89922 21.6001C6.89922 21.8123 6.9835 22.0158 7.13353 22.1658C7.28356 22.3158 7.48705 22.4001 7.69922 22.4001H17.2992C17.5114 22.4001 17.7149 22.3158 17.8649 22.1658C18.0149 22.0158 18.0992 21.8123 18.0992 21.6001C18.0992 21.3879 18.0149 21.1844 17.8649 21.0344C17.7149 20.8844 17.5114 20.8001 17.2992 20.8001C17.2992 20.8001 13.2992 20.8001 13.2992 18.4001V14.9345L14.0992 16.0001Z" fill="white"/>
</g>
</svg>
