<svg width="14" height="14" viewBox="0 0 14 14" fill="none" xmlns="http://www.w3.org/2000/svg">
<path id="Vector" d="M0 11.5V4H4V0H11.5C12.163 0 12.7989 0.263392 13.2678 0.732233C13.7366 1.20107 14 1.83696 14 2.5V11.5C14 12.163 13.7366 12.7989 13.2678 13.2678C12.7989 13.7366 12.163 14 11.5 14H2.5C1.83696 14 1.20107 13.7366 0.732233 13.2678C0.263392 12.7989 0 12.163 0 11.5ZM5 1V4H9V1H5ZM10 1V4H13V2.5C13 2.10218 12.842 1.72064 12.5607 1.43934C12.2794 1.15804 11.8978 1 11.5 1H10ZM13 5H10V9H13V5ZM13 10H10V13H11.5C11.8978 13 12.2794 12.842 12.5607 12.5607C12.842 12.2794 13 11.8978 13 11.5V10ZM9 13V10H5V13H9ZM4 13V10H1V11.5C1 11.8978 1.15804 12.2794 1.43934 12.5607C1.72064 12.842 2.10218 13 2.5 13H4ZM1 9H4V5H1V9ZM9 5H5V9H9V5Z" fill="white"/>
</svg>
